<?xml version="1.0" encoding="UTF-8" standalone="no"?><!DOCTYPE svg PUBLIC "-//W3C//DTD SVG 1.1//EN" "http://www.w3.org/Graphics/SVG/1.1/DTD/svg11.dtd"><svg width="100%" height="100%" viewBox="0 0 2134 2134" version="1.1" xmlns="http://www.w3.org/2000/svg" xmlns:xlink="http://www.w3.org/1999/xlink" xml:space="preserve" xmlns:serif="http://www.serif.com/" style="fill-rule:evenodd;clip-rule:evenodd;stroke-linejoin:round;stroke-miterlimit:2;"><rect id="Android-Foreground" serif:id="Android Foreground" x="-0" y="-0" width="2133.33" height="2133.33" style="fill:none;"/><g><path d="M1323.05,51.029l13.729,-3.679c63.47,-17.007 128.806,20.715 145.813,84.185l0.112,0.417l413.022,1541.42c19.797,73.882 -24.114,149.938 -97.996,169.735l-887.59,237.829c-141.986,38.045 -288.149,-46.342 -326.194,-188.328l-341.951,-1276.18c-34.364,-128.247 31.156,-259.9 148.785,-312.214c8.064,-4.373 16.763,-7.876 26.009,-10.353l556.514,-149.118l140.572,524.62l128.016,-221.731l221.73,128.017l-140.571,-524.62Zm446.08,1664.79l-69.349,-258.812l-891.853,238.971c-71.422,19.138 -113.869,92.66 -94.732,164.081c19.137,71.421 92.659,113.869 164.08,94.732l891.854,-238.972Z" style="fill:#fff;"/></g></svg>