<?xml version="1.0" encoding="UTF-8" standalone="no"?><!DOCTYPE svg PUBLIC "-//W3C//DTD SVG 1.1//EN" "http://www.w3.org/Graphics/SVG/1.1/DTD/svg11.dtd"><svg width="100%" height="100%" viewBox="0 0 2134 2134" version="1.1" xmlns="http://www.w3.org/2000/svg" xmlns:xlink="http://www.w3.org/1999/xlink" xml:space="preserve" xmlns:serif="http://www.serif.com/" style="fill-rule:evenodd;clip-rule:evenodd;stroke-linejoin:round;stroke-miterlimit:2;"><rect id="Android---iOS" serif:id="Android / iOS" x="0" y="-0" width="2133.33" height="2133.33" style="fill:#171f2f;"/><g><path d="M1592.45,1625.1l-638.369,171.051c-102.118,27.362 -207.24,-33.33 -234.603,-135.449l-245.937,-917.849c-27.363,-102.119 33.33,-207.241 135.448,-234.604l638.369,-171.05c53.137,-14.238 107.838,17.343 122.076,70.481l293.497,1095.34c14.238,53.138 -17.344,107.838 -70.481,122.076Z" style="fill:#5046e5;"/><path d="M1365.8,394.105l276.504,1031.93c12.232,45.648 -14.899,92.639 -60.547,104.871l-661.671,177.294c-45.649,12.231 -92.64,-14.899 -104.871,-60.547l-276.504,-1031.93c-12.232,-45.648 14.898,-92.639 60.547,-104.87l661.671,-177.295c45.649,-12.231 92.64,14.899 104.871,60.547Z" style="fill:#4338ca;"/><path d="M812.441,1637.29l-273.647,-1021.26c-12.276,-45.814 14.818,-92.94 60.467,-105.171l661.671,-177.295c45.649,-12.231 92.676,15.034 104.951,60.848l226.467,845.185c12.276,45.814 -14.818,92.939 -60.467,105.171l-12.531,3.358l24.938,93.071l-731.849,196.098Z" style="fill:#6466f1;"/><path d="M1571.89,1533.55l-641.435,171.872c-51.368,13.763 -104.246,-16.766 -118.01,-68.133c-13.764,-51.367 16.766,-104.246 68.133,-118.009l641.435,-171.872l49.877,186.142Z" style="fill:#ebebeb;"/><path d="M1100.62,780.92l-101.101,-377.315l251.543,-67.401l101.101,377.315l-159.472,-92.071l-92.071,159.472Z" style="fill:#302e81;"/></g></svg>